# xmcd
#
# Track frame offsets:
#	150
#	14845
#	26927
#	37587
#	52641
#	67197
#	80811
#	95350
#	109203
#	119866
#	135817
#	150900
#	167006
#	182640
#	194818
#	206986
#	224256
#	236775
#
# Disc length: 3325 seconds
#
# Revision: 1
# Processed by: cddbd v1.5.2PL0 Copyright (c) Steve Scherf et al.
# Submitted via: audiograbber 1.83.01
#
DISCID=050cfb12
DTITLE=Judy Klass - Brooklyn Girl Judy Klass
DYEAR=1900
DGENRE=
TTITLE0=Drunk On Corona
TTITLE1=Sex With Your Ex
TTITLE2=You Diden´t Think
TTITLE3=Double Zero War
TTITLE4=Empty Eyes
TTITLE5=If It Was Me Leaving You
TTITLE6=Elvis Lives
TTITLE7=Falling In Love Again
TTITLE8=I Do Know What I´m Gonna Do With You
TTITLE9=Alternate Universe
TTITLE10=He Done Her Wrong
TTITLE11=You Hove Right
TTITLE12=Love Substitute
TTITLE13=Do You Want Me
TTITLE14=Cheap Hotel
TTITLE15=Bring It Back On To You
TTITLE16=Queen Of Denial
TTITLE17=Rescue Me
EXTD=
EXTT0=
EXTT1=
EXTT2=
EXTT3=
EXTT4=
EXTT5=
EXTT6=
EXTT7=
EXTT8=
EXTT9=
EXTT10=
EXTT11=
EXTT12=
EXTT13=
EXTT14=
EXTT15=
EXTT16=
EXTT17=
PLAYORDER=
